<?xml version="1.0" encoding="utf-8"?>
<!-- Generator: Adobe Illustrator 16.0.0, SVG Export Plug-In . SVG Version: 6.00 Build 0)  -->
<!DOCTYPE svg PUBLIC "-//W3C//DTD SVG 1.1//EN" "http://www.w3.org/Graphics/SVG/1.1/DTD/svg11.dtd">
<svg version="1.1" id="Layer_1" xmlns="http://www.w3.org/2000/svg" xmlns:xlink="http://www.w3.org/1999/xlink" x="0px" y="0px"
	 width="400px" height="225px" viewBox="0 0 400 225" enable-background="new 0 0 400 225" xml:space="preserve">
<rect x="-0.001" width="400.002" height="225"/>
<g>
	<g>
		<g>
			<linearGradient id="SVGID_1_" gradientUnits="userSpaceOnUse" x1="138.7129" y1="82.5645" x2="261.2871" y2="82.5645">
				<stop  offset="0" style="stop-color:#CBD1D6"/>
				<stop  offset="0.2015" style="stop-color:#BAC0C5"/>
				<stop  offset="0.4326" style="stop-color:#AAB1B5"/>
				<stop  offset="0.5206" style="stop-color:#B7BEC2"/>
				<stop  offset="0.8386" style="stop-color:#E3EAED"/>
				<stop  offset="1" style="stop-color:#F4FBFE"/>
			</linearGradient>
			<path fill="url(#SVGID_1_)" d="M200.002,143.854c-33.797,0-61.289-27.495-61.289-61.29c0-33.794,27.492-61.289,61.289-61.289
				c33.791,0,61.285,27.495,61.285,61.289C261.287,116.358,233.793,143.854,200.002,143.854z M200.002,29.467
				c-29.282,0-53.098,23.818-53.098,53.097c0,29.276,23.815,53.094,53.098,53.094c29.272,0,53.094-23.818,53.094-53.094
				C253.096,53.286,229.274,29.467,200.002,29.467z"/>
		</g>
		<g>
			<linearGradient id="SVGID_2_" gradientUnits="userSpaceOnUse" x1="143.5977" y1="82.563" x2="256.4023" y2="82.563">
				<stop  offset="0" style="stop-color:#BFBDBE"/>
				<stop  offset="0.0379" style="stop-color:#CCCBCC"/>
				<stop  offset="0.121" style="stop-color:#E4E3E4"/>
				<stop  offset="0.1975" style="stop-color:#F3F2F3"/>
				<stop  offset="0.2606" style="stop-color:#F8F7F8"/>
				<stop  offset="0.3053" style="stop-color:#F2F1F2"/>
				<stop  offset="0.3651" style="stop-color:#E1E0E1"/>
				<stop  offset="0.4331" style="stop-color:#C6C4C5"/>
				<stop  offset="0.4485" style="stop-color:#BFBDBE"/>
				<stop  offset="0.5818" style="stop-color:#BFBDBE"/>
				<stop  offset="0.6222" style="stop-color:#CECCCD"/>
				<stop  offset="0.6965" style="stop-color:#E5E3E4"/>
				<stop  offset="0.7673" style="stop-color:#F2F0F1"/>
				<stop  offset="0.8303" style="stop-color:#F7F5F6"/>
				<stop  offset="1" style="stop-color:#C0BEBF"/>
			</linearGradient>
			<path fill="url(#SVGID_2_)" d="M200.002,138.966c-31.104,0-56.404-25.302-56.404-56.402c0-31.101,25.301-56.404,56.404-56.404
				c31.095,0,56.4,25.303,56.4,56.404C256.402,113.664,231.097,138.966,200.002,138.966z M200.002,33.7
				c-26.946,0-48.867,21.92-48.867,48.864c0,26.941,21.921,48.864,48.867,48.864c26.938,0,48.86-21.923,48.86-48.864
				C248.862,55.621,226.939,33.7,200.002,33.7z"/>
		</g>
		<g>
			<linearGradient id="SVGID_3_" gradientUnits="userSpaceOnUse" x1="138.9512" y1="82.5615" x2="209.3418" y2="82.5615">
				<stop  offset="0" style="stop-color:#BFBDBE"/>
				<stop  offset="0.0379" style="stop-color:#CCCBCC"/>
				<stop  offset="0.121" style="stop-color:#E4E3E4"/>
				<stop  offset="0.1975" style="stop-color:#F3F2F3"/>
				<stop  offset="0.2606" style="stop-color:#F8F7F8"/>
				<stop  offset="0.3053" style="stop-color:#F2F1F2"/>
				<stop  offset="0.3651" style="stop-color:#E1E0E1"/>
				<stop  offset="0.4331" style="stop-color:#C6C4C5"/>
				<stop  offset="0.4485" style="stop-color:#BFBDBE"/>
				<stop  offset="0.5818" style="stop-color:#BFBDBE"/>
				<stop  offset="0.6222" style="stop-color:#CECCCD"/>
				<stop  offset="0.6965" style="stop-color:#E5E3E4"/>
				<stop  offset="0.7673" style="stop-color:#F2F0F1"/>
				<stop  offset="0.8303" style="stop-color:#F7F5F6"/>
				<stop  offset="1" style="stop-color:#C0BEBF"/>
			</linearGradient>
			<path fill="url(#SVGID_3_)" d="M208.704,106.048c-0.755-0.809-1.472-1.863-2.17-3.215l-4.566-8.569h-34.001
				c-2.018,0-3.889-0.277-5.618-0.831c-1.729-0.548-3.226-1.33-4.496-2.337c-1.276-1.01-2.262-2.219-2.957-3.639
				c-0.692-1.415-1.04-2.984-1.04-4.714c0-1.729,0.355-3.313,1.075-4.754c0.723-1.434,1.708-2.672,2.957-3.706
				c1.243-1.032,2.731-1.835,4.461-2.414c1.729-0.576,3.601-0.861,5.618-0.861h13.315l2.1-7.136c0.703-2.354,1.908-4.116,3.48-5.398
				h-18.896c-4.176,0-8.043,0.568-11.594,1.694c-3.552,1.13-6.615,2.734-9.181,4.828c-2.568,2.085-4.583,4.583-6.053,7.486
				c-1.461,2.905-2.188,6.106-2.188,9.609c0,3.505,0.728,6.758,2.188,9.758c1.47,3,3.484,5.596,6.053,7.782
				c2.565,2.18,5.629,3.896,9.181,5.146c3.551,1.246,7.418,1.871,11.594,1.871h41.375
				C209.13,106.45,208.913,106.271,208.704,106.048z"/>
			<linearGradient id="SVGID_4_" gradientUnits="userSpaceOnUse" x1="176.5088" y1="90.1836" x2="261.0488" y2="90.1836">
				<stop  offset="0" style="stop-color:#BFBDBE"/>
				<stop  offset="0.0379" style="stop-color:#CCCBCC"/>
				<stop  offset="0.121" style="stop-color:#E4E3E4"/>
				<stop  offset="0.1975" style="stop-color:#F3F2F3"/>
				<stop  offset="0.2606" style="stop-color:#F8F7F8"/>
				<stop  offset="0.3053" style="stop-color:#F2F1F2"/>
				<stop  offset="0.3651" style="stop-color:#E1E0E1"/>
				<stop  offset="0.4331" style="stop-color:#C6C4C5"/>
				<stop  offset="0.4485" style="stop-color:#BFBDBE"/>
				<stop  offset="0.5818" style="stop-color:#BFBDBE"/>
				<stop  offset="0.6222" style="stop-color:#CECCCD"/>
				<stop  offset="0.6965" style="stop-color:#E5E3E4"/>
				<stop  offset="0.7673" style="stop-color:#F2F0F1"/>
				<stop  offset="0.8303" style="stop-color:#F7F5F6"/>
				<stop  offset="1" style="stop-color:#C0BEBF"/>
			</linearGradient>
			<path fill="url(#SVGID_4_)" d="M248.876,64.312c-0.668-2.262-1.757-3.926-3.271-5.01c-1.513-1.078-3.207-1.618-5.075-1.618
				c-1.977,0-3.619,0.47-4.931,1.407c-1.32,0.931-2.417,2.169-3.277,3.709l-7.706,13.677c-1.059,1.876-1.982,3.502-2.772,4.898
				c-0.793,1.396-1.488,2.655-2.088,3.779c-0.603,1.13-1.13,2.137-1.583,3.025c-0.462,0.888-0.88,1.768-1.26,2.628
				c-0.438-0.861-0.877-1.754-1.331-2.664c-0.458-0.913-0.99-1.92-1.588-3.025c-0.601-1.105-1.298-2.365-2.091-3.782
				c-0.79-1.409-1.713-3.06-2.772-4.931l-7.7-13.606c-0.863-1.586-1.96-2.837-3.274-3.747c-1.322-0.91-2.943-1.369-4.86-1.369
				c-1.876,0-3.579,0.541-5.115,1.618c-1.537,1.083-2.64,2.748-3.311,5.01l-8.36,28.404h14.282l0.774-2.845
				c0.72-2.734,1.341-5.148,1.868-7.239c0.532-2.085,0.985-4.086,1.374-6.009c0.383,0.817,0.776,1.654,1.184,2.52
				c0.41,0.863,0.888,1.811,1.444,2.843c0.546,1.035,1.159,2.197,1.836,3.492c0.67,1.295,1.438,2.764,2.3,4.394l6.479,12.169
				c0.627,1.2,1.265,2.148,1.914,2.843c0.646,0.698,1.309,1.235,1.974,1.618c0.679,0.391,1.396,0.641,2.167,0.757
				c0.766,0.12,1.607,0.182,2.517,0.182c0.91,0,1.752-0.063,2.515-0.182c0.773-0.117,1.488-0.366,2.167-0.757
				c0.671-0.383,1.33-0.92,1.981-1.618c0.644-0.695,1.282-1.643,1.906-2.843l6.479-12.094c1.632-3.125,2.952-5.705,3.962-7.741
				c1.01-2.042,1.917-3.902,2.734-5.583c0.389,1.966,0.842,3.983,1.371,6.047c0.521,2.066,1.173,4.467,1.941,7.201l8.469,32.812
				l10.902-16.034L248.876,64.312z"/>
		</g>
		<g>
			<linearGradient id="SVGID_5_" gradientUnits="userSpaceOnUse" x1="138.9512" y1="82.5615" x2="209.3418" y2="82.5615">
				<stop  offset="0" style="stop-color:#BFBDBE"/>
				<stop  offset="0.0379" style="stop-color:#CCCBCC"/>
				<stop  offset="0.121" style="stop-color:#E4E3E4"/>
				<stop  offset="0.1975" style="stop-color:#F3F2F3"/>
				<stop  offset="0.2606" style="stop-color:#F8F7F8"/>
				<stop  offset="0.3053" style="stop-color:#F2F1F2"/>
				<stop  offset="0.3651" style="stop-color:#E1E0E1"/>
				<stop  offset="0.4331" style="stop-color:#C6C4C5"/>
				<stop  offset="0.4485" style="stop-color:#BFBDBE"/>
				<stop  offset="0.5818" style="stop-color:#BFBDBE"/>
				<stop  offset="0.6222" style="stop-color:#CECCCD"/>
				<stop  offset="0.6965" style="stop-color:#E5E3E4"/>
				<stop  offset="0.7673" style="stop-color:#F2F0F1"/>
				<stop  offset="0.8303" style="stop-color:#F7F5F6"/>
				<stop  offset="1" style="stop-color:#C0BEBF"/>
			</linearGradient>
			<path fill="url(#SVGID_5_)" stroke="#000000" stroke-width="2.7307" stroke-miterlimit="10" d="M208.704,106.048
				c-0.755-0.809-1.472-1.863-2.17-3.215l-4.566-8.569h-34.001c-2.018,0-3.889-0.277-5.618-0.831
				c-1.729-0.548-3.226-1.33-4.496-2.337c-1.276-1.01-2.262-2.219-2.957-3.639c-0.692-1.415-1.04-2.984-1.04-4.714
				c0-1.729,0.355-3.313,1.075-4.754c0.723-1.434,1.708-2.672,2.957-3.706c1.243-1.032,2.731-1.835,4.461-2.414
				c1.729-0.576,3.601-0.861,5.618-0.861h13.315l2.1-7.136c0.703-2.354,1.908-4.116,3.48-5.398h-18.896
				c-4.176,0-8.043,0.568-11.594,1.694c-3.552,1.13-6.615,2.734-9.181,4.828c-2.568,2.085-4.583,4.583-6.053,7.486
				c-1.461,2.905-2.188,6.106-2.188,9.609c0,3.505,0.728,6.758,2.188,9.758c1.47,3,3.484,5.596,6.053,7.782
				c2.565,2.18,5.629,3.896,9.181,5.146c3.551,1.246,7.418,1.871,11.594,1.871h41.375
				C209.13,106.45,208.913,106.271,208.704,106.048z"/>
			<path stroke="#000000" stroke-width="2.7307" stroke-miterlimit="10" d="M248.876,64.312c-0.668-2.262-1.757-3.926-3.271-5.01
				c-1.513-1.078-3.207-1.618-5.075-1.618c-1.977,0-3.619,0.47-4.931,1.407c-1.32,0.931-2.417,2.169-3.277,3.709l-7.706,13.677
				c-1.059,1.876-1.982,3.502-2.772,4.898c-0.793,1.396-1.488,2.655-2.088,3.779c-0.603,1.13-1.13,2.137-1.583,3.025
				c-0.462,0.888-0.88,1.768-1.26,2.628c-0.438-0.861-0.877-1.754-1.331-2.664c-0.458-0.913-0.99-1.92-1.588-3.025
				c-0.601-1.105-1.298-2.365-2.091-3.782c-0.79-1.409-1.713-3.06-2.772-4.931l-7.7-13.606c-0.863-1.586-1.96-2.837-3.274-3.747
				c-1.322-0.91-2.943-1.369-4.86-1.369c-1.876,0-3.579,0.541-5.115,1.618c-1.537,1.083-2.64,2.748-3.311,5.01l-8.36,28.404h14.282
				l0.774-2.845c0.72-2.734,1.341-5.148,1.868-7.239c0.532-2.085,0.985-4.086,1.374-6.009c0.383,0.817,0.776,1.654,1.184,2.52
				c0.41,0.863,0.888,1.811,1.444,2.843c0.546,1.035,1.159,2.197,1.836,3.492c0.67,1.295,1.438,2.764,2.3,4.394l6.479,12.169
				c0.627,1.2,1.265,2.148,1.914,2.843c0.646,0.698,1.309,1.235,1.974,1.618c0.679,0.391,1.396,0.641,2.167,0.757
				c0.766,0.12,1.607,0.182,2.517,0.182c0.91,0,1.752-0.063,2.515-0.182c0.773-0.117,1.488-0.366,2.167-0.757
				c0.671-0.383,1.33-0.92,1.981-1.618c0.644-0.695,1.282-1.643,1.906-2.843l6.479-12.094c1.632-3.125,2.952-5.705,3.962-7.741
				c1.01-2.042,1.917-3.902,2.734-5.583c0.389,1.966,0.842,3.983,1.371,6.047c0.521,2.066,1.173,4.467,1.941,7.201l8.469,32.812
				l10.902-16.034L248.876,64.312z"/>
		</g>
		<linearGradient id="SVGID_6_" gradientUnits="userSpaceOnUse" x1="138.9512" y1="82.5615" x2="209.3418" y2="82.5615">
			<stop  offset="0" style="stop-color:#BFBDBE"/>
			<stop  offset="0.0379" style="stop-color:#CCCBCC"/>
			<stop  offset="0.121" style="stop-color:#E4E3E4"/>
			<stop  offset="0.1975" style="stop-color:#F3F2F3"/>
			<stop  offset="0.2606" style="stop-color:#F8F7F8"/>
			<stop  offset="0.3053" style="stop-color:#F2F1F2"/>
			<stop  offset="0.3651" style="stop-color:#E1E0E1"/>
			<stop  offset="0.4331" style="stop-color:#C6C4C5"/>
			<stop  offset="0.4485" style="stop-color:#BFBDBE"/>
			<stop  offset="0.5818" style="stop-color:#BFBDBE"/>
			<stop  offset="0.6222" style="stop-color:#CECCCD"/>
			<stop  offset="0.6965" style="stop-color:#E5E3E4"/>
			<stop  offset="0.7673" style="stop-color:#F2F0F1"/>
			<stop  offset="0.8303" style="stop-color:#F7F5F6"/>
			<stop  offset="1" style="stop-color:#C0BEBF"/>
		</linearGradient>
		<path fill="url(#SVGID_6_)" d="M208.704,106.048c-0.755-0.809-1.472-1.863-2.17-3.215l-4.566-8.569h-34.001
			c-2.018,0-3.889-0.277-5.618-0.831c-1.729-0.548-3.226-1.33-4.496-2.337c-1.276-1.01-2.262-2.219-2.957-3.639
			c-0.692-1.415-1.04-2.984-1.04-4.714c0-1.729,0.355-3.313,1.075-4.754c0.723-1.434,1.708-2.672,2.957-3.706
			c1.243-1.032,2.731-1.835,4.461-2.414c1.729-0.576,3.601-0.861,5.618-0.861h13.315l2.1-7.136c0.703-2.354,1.908-4.116,3.48-5.398
			h-18.896c-4.176,0-8.043,0.568-11.594,1.694c-3.552,1.13-6.615,2.734-9.181,4.828c-2.568,2.085-4.583,4.583-6.053,7.486
			c-1.461,2.905-2.188,6.106-2.188,9.609c0,3.505,0.728,6.758,2.188,9.758c1.47,3,3.484,5.596,6.053,7.782
			c2.565,2.18,5.629,3.896,9.181,5.146c3.551,1.246,7.418,1.871,11.594,1.871h41.375C209.13,106.45,208.913,106.271,208.704,106.048
			z"/>
		<g>
			<path fill="none" d="M200.002,29.467c-29.282,0-53.098,23.818-53.098,53.097c0,29.276,23.815,53.094,53.098,53.094
				c19.948,0,37.354-11.064,46.425-27.378l-4.749-18.409c-0.769-2.734-1.42-5.135-1.941-7.201c-0.529-2.063-0.982-4.081-1.371-6.047
				c-0.817,1.681-1.725,3.541-2.734,5.583c-1.01,2.037-2.33,4.616-3.962,7.741l-6.479,12.094c-0.624,1.2-1.263,2.148-1.906,2.843
				c-0.651,0.698-1.311,1.235-1.981,1.618c-0.679,0.391-1.394,0.641-2.167,0.757c-0.763,0.12-1.604,0.182-2.515,0.182
				c-0.909,0-1.751-0.063-2.517-0.182c-0.771-0.117-1.488-0.366-2.167-0.757c-0.665-0.383-1.327-0.92-1.974-1.618
				c-0.649-0.695-1.287-1.643-1.914-2.843l-6.479-12.169c-0.861-1.629-1.63-3.098-2.3-4.394c-0.677-1.295-1.29-2.457-1.836-3.492
				c-0.557-1.032-1.034-1.979-1.444-2.843c-0.407-0.866-0.801-1.703-1.184-2.52c-0.389,1.922-0.842,3.924-1.374,6.009
				c-0.527,2.091-1.148,4.505-1.868,7.239l-0.774,2.845h-14.282l8.36-28.404c0.671-2.262,1.773-3.926,3.311-5.01
				c1.536-1.078,3.239-1.618,5.115-1.618c1.917,0,3.538,0.459,4.86,1.369c1.314,0.91,2.411,2.161,3.274,3.747l7.7,13.606
				c1.06,1.871,1.982,3.522,2.772,4.931c0.793,1.417,1.49,2.677,2.091,3.782c0.598,1.105,1.13,2.112,1.588,3.025
				c0.454,0.91,0.894,1.803,1.331,2.664c0.38-0.861,0.798-1.74,1.26-2.628c0.453-0.888,0.98-1.895,1.583-3.025
				c0.6-1.124,1.295-2.384,2.088-3.779c0.79-1.396,1.714-3.022,2.772-4.898l7.706-13.677c0.86-1.54,1.957-2.778,3.277-3.709
				c1.312-0.937,2.954-1.407,4.931-1.407c1.868,0,3.563,0.541,5.075,1.618c1.515,1.083,2.604,2.748,3.271,5.01l4.035,14.03
				C250.752,51.035,227.852,29.467,200.002,29.467z"/>
			<linearGradient id="SVGID_7_" gradientUnits="userSpaceOnUse" x1="138.7017" y1="98.6968" x2="261.2853" y2="98.6968">
				<stop  offset="0" style="stop-color:#CBD1D6"/>
				<stop  offset="0.2015" style="stop-color:#BAC0C5"/>
				<stop  offset="0.4326" style="stop-color:#AAB1B5"/>
				<stop  offset="0.5206" style="stop-color:#B7BEC2"/>
				<stop  offset="0.8386" style="stop-color:#E3EAED"/>
				<stop  offset="1" style="stop-color:#F4FBFE"/>
			</linearGradient>
			<path fill="url(#SVGID_7_)" d="M252.911,78.342c0.108,1.396,0.185,2.799,0.185,4.222c0,9.324-2.425,18.095-6.669,25.716
				l2.78,10.771c4.358-5.864,7.685-12.536,9.731-19.737L252.911,78.342z"/>
			<linearGradient id="SVGID_8_" gradientUnits="userSpaceOnUse" x1="-284.1768" y1="88.3682" x2="272.8361" y2="88.3682">
				<stop  offset="0" style="stop-color:#BFBDBE"/>
				<stop  offset="0.0379" style="stop-color:#CCCBCC"/>
				<stop  offset="0.121" style="stop-color:#E4E3E4"/>
				<stop  offset="0.1975" style="stop-color:#F3F2F3"/>
				<stop  offset="0.2606" style="stop-color:#F8F7F8"/>
				<stop  offset="0.3053" style="stop-color:#F2F1F2"/>
				<stop  offset="0.3651" style="stop-color:#E1E0E1"/>
				<stop  offset="0.4331" style="stop-color:#C6C4C5"/>
				<stop  offset="0.4485" style="stop-color:#BFBDBE"/>
				<stop  offset="0.5818" style="stop-color:#BFBDBE"/>
				<stop  offset="0.6222" style="stop-color:#CECCCD"/>
				<stop  offset="0.6965" style="stop-color:#E5E3E4"/>
				<stop  offset="0.7673" style="stop-color:#F2F0F1"/>
				<stop  offset="0.8303" style="stop-color:#F7F5F6"/>
				<stop  offset="1" style="stop-color:#C0BEBF"/>
			</linearGradient>
			<path fill="url(#SVGID_8_)" d="M252.911,78.342l-4.035-14.03c-0.668-2.262-1.757-3.926-3.271-5.01
				c-1.513-1.078-3.207-1.618-5.075-1.618c-1.977,0-3.619,0.47-4.931,1.407c-1.32,0.931-2.417,2.169-3.277,3.709l-7.706,13.677
				c-1.059,1.876-1.982,3.502-2.772,4.898c-0.793,1.396-1.488,2.655-2.088,3.779c-0.603,1.13-1.13,2.137-1.583,3.025
				c-0.462,0.888-0.88,1.768-1.26,2.628c-0.438-0.861-0.877-1.754-1.331-2.664c-0.458-0.913-0.99-1.92-1.588-3.025
				c-0.601-1.105-1.298-2.365-2.091-3.782c-0.79-1.409-1.713-3.06-2.772-4.931l-7.7-13.606c-0.863-1.586-1.96-2.837-3.274-3.747
				c-1.322-0.91-2.943-1.369-4.86-1.369c-1.876,0-3.579,0.541-5.115,1.618c-1.537,1.083-2.64,2.748-3.311,5.01l-8.36,28.404h14.282
				l0.774-2.845c0.72-2.734,1.341-5.148,1.868-7.239c0.532-2.085,0.985-4.086,1.374-6.009c0.383,0.817,0.776,1.654,1.184,2.52
				c0.41,0.863,0.888,1.811,1.444,2.843c0.546,1.035,1.159,2.197,1.836,3.492c0.67,1.295,1.438,2.764,2.3,4.394l6.479,12.169
				c0.627,1.2,1.265,2.148,1.914,2.843c0.646,0.698,1.309,1.235,1.974,1.618c0.679,0.391,1.396,0.641,2.167,0.757
				c0.766,0.12,1.607,0.182,2.517,0.182c0.91,0,1.752-0.063,2.515-0.182c0.773-0.117,1.488-0.366,2.167-0.757
				c0.671-0.383,1.33-0.92,1.981-1.618c0.644-0.695,1.282-1.643,1.906-2.843l6.479-12.094c1.632-3.125,2.952-5.705,3.962-7.741
				c1.01-2.042,1.917-3.902,2.734-5.583c0.389,1.966,0.842,3.983,1.371,6.047c0.521,2.066,1.173,4.467,1.941,7.201l4.749,18.409
				l2.78,10.771c4.358-5.864,7.685-12.536,9.731-19.737L252.911,78.342z"/>
		</g>
	</g>
	<g>
		<path fill="#FFFFFF" d="M124.547,166.146l-3.882,5.021h-9.808c-1.693,0-3.259-0.253-4.699-0.759
			c-1.44-0.506-2.681-1.201-3.722-2.087s-1.858-1.937-2.452-3.152c-0.594-1.216-0.89-2.534-0.89-3.955s0.296-2.72,0.89-3.896
			c0.593-1.178,1.411-2.189,2.452-3.036s2.281-1.498,3.722-1.956c1.44-0.456,3.006-0.686,4.699-0.686h13.69l-3.882,5.079h-9.808
			c-0.817,0-1.576,0.116-2.276,0.35c-0.701,0.234-1.304,0.561-1.81,0.979s-0.905,0.919-1.196,1.503
			c-0.292,0.584-0.438,1.226-0.438,1.927c0,0.7,0.141,1.338,0.423,1.912c0.282,0.573,0.681,1.064,1.197,1.474
			c0.515,0.408,1.124,0.725,1.824,0.948c0.7,0.225,1.459,0.336,2.276,0.336H124.547z"/>
		<path fill="#FFFFFF" d="M154.349,171.166h-8.085L141.914,166h-9.282v5.166h-6.042v-9.982h16.988c0.934,0,1.722-0.194,2.364-0.584
			c0.642-0.389,0.963-0.924,0.963-1.605c0-0.759-0.292-1.328-0.875-1.707c-0.584-0.38-1.401-0.569-2.452-0.569H126.59l3.941-5.079
			h12.551c1.109,0,2.257,0.103,3.444,0.307s2.267,0.569,3.24,1.095c0.973,0.525,1.775,1.235,2.408,2.131
			c0.632,0.895,0.949,2.043,0.949,3.444c0,0.759-0.117,1.479-0.35,2.159c-0.233,0.682-0.569,1.295-1.007,1.839
			c-0.438,0.546-0.974,1.008-1.605,1.387c-0.633,0.38-1.348,0.647-2.146,0.803c0.331,0.253,0.701,0.574,1.109,0.963
			c0.408,0.39,0.953,0.925,1.634,1.605L154.349,171.166z"/>
		<path fill="#FFFFFF" d="M179.188,166.146l-3.882,5.021h-18.797v-19.527h22.621l-3.911,5.079H162.58v2.335h15.47l-3.474,4.437
			H162.58v2.656H179.188z"/>
		<path fill="#FFFFFF" d="M188.528,171.166l3.649-5.021h4.904c0.583,0,1.191,0,1.824,0c0.632,0,1.182,0.02,1.649,0.059
			c-0.272-0.351-0.589-0.793-0.949-1.328c-0.36-0.535-0.706-1.036-1.036-1.503l-3.502-5.167l-9.166,12.96h-7.151l12.522-17.659
			c0.408-0.564,0.924-1.07,1.547-1.518c0.623-0.447,1.411-0.672,2.364-0.672c0.915,0,1.678,0.21,2.292,0.628
			c0.613,0.419,1.133,0.938,1.562,1.562l12.201,17.659H188.528z"/>
		<path fill="#FFFFFF" d="M231.407,151.639l-3.911,5.079h-6.977v14.448h-6.042v-14.448h-9.165l3.911-5.079H231.407z"/>
		<path fill="#FFFFFF" d="M239.376,171.166h-6.042v-19.527h6.042V171.166z"/>
		<path fill="#FFFFFF" d="M249.037,151.639l8.785,12.96l9.166-12.96h7.122l-12.493,17.659c-0.429,0.564-0.954,1.07-1.576,1.518
			c-0.623,0.447-1.401,0.672-2.335,0.672c-0.915,0-1.679-0.21-2.292-0.628c-0.612-0.418-1.134-0.938-1.562-1.562l-12.229-17.659
			H249.037z"/>
		<path fill="#FFFFFF" d="M298.949,166.146l-3.882,5.021H276.27v-19.527h22.621l-3.911,5.079h-12.639v2.335h15.47l-3.474,4.437
			h-11.996v2.656H298.949z"/>
		<path fill="#FFFFFF" d="M113.193,184.021c0.428,0.76,0.803,1.426,1.124,2c0.321,0.574,0.603,1.085,0.847,1.532
			c0.243,0.448,0.457,0.856,0.642,1.226c0.185,0.37,0.365,0.73,0.54,1.08c0.155-0.35,0.326-0.705,0.511-1.065
			c0.185-0.359,0.398-0.769,0.642-1.226c0.243-0.457,0.525-0.968,0.847-1.532c0.321-0.564,0.695-1.226,1.124-1.985l3.123-5.546
			c0.351-0.622,0.793-1.123,1.328-1.503c0.535-0.379,1.202-0.569,2-0.569c0.759,0,1.445,0.219,2.058,0.657
			c0.613,0.438,1.055,1.114,1.328,2.028l4.933,17.163h-6.013l-1.839-6.801c-0.312-1.109-0.574-2.082-0.788-2.919
			c-0.214-0.837-0.399-1.654-0.555-2.452c-0.331,0.682-0.701,1.436-1.109,2.263s-0.944,1.873-1.605,3.138l-2.627,4.903
			c-0.253,0.486-0.511,0.871-0.773,1.153s-0.53,0.501-0.803,0.656s-0.564,0.258-0.875,0.307c-0.312,0.049-0.652,0.073-1.021,0.073
			c-0.37,0-0.711-0.024-1.022-0.073s-0.603-0.151-0.875-0.307s-0.54-0.374-0.803-0.656s-0.521-0.667-0.773-1.153l-2.627-4.933
			c-0.35-0.661-0.662-1.255-0.934-1.78s-0.521-0.997-0.744-1.416c-0.224-0.418-0.419-0.803-0.584-1.153
			c-0.166-0.35-0.326-0.69-0.481-1.021c-0.156,0.778-0.341,1.591-0.555,2.438c-0.214,0.847-0.467,1.824-0.759,2.934l-1.839,6.801
			h-5.925l5.049-17.163c0.272-0.914,0.72-1.591,1.343-2.028c0.623-0.438,1.313-0.657,2.072-0.657c0.778,0,1.435,0.186,1.971,0.555
			c0.535,0.37,0.978,0.876,1.328,1.518L113.193,184.021z"/>
		<path fill="#FFFFFF" d="M147.927,196.281l3.649-5.021h4.904c0.583,0,1.191,0,1.824,0c0.632,0,1.182,0.02,1.649,0.059
			c-0.272-0.351-0.589-0.793-0.949-1.328c-0.36-0.535-0.706-1.036-1.036-1.503l-3.502-5.167l-9.166,12.96h-7.151l12.522-17.659
			c0.408-0.564,0.924-1.07,1.547-1.518c0.623-0.447,1.411-0.672,2.364-0.672c0.915,0,1.678,0.21,2.292,0.628
			c0.613,0.419,1.133,0.938,1.562,1.562l12.201,17.659H147.927z"/>
		<path fill="#FFFFFF" d="M194.104,184.548c2.394,0,4.213,0.442,5.458,1.327c1.245,0.886,1.868,2.224,1.868,4.014
			c0,0.992-0.156,1.888-0.467,2.686c-0.312,0.798-0.808,1.47-1.489,2.014c-0.681,0.546-1.552,0.964-2.612,1.256
			c-1.061,0.292-2.331,0.438-3.809,0.438h-18.185l3.882-5.021h14.77c0.72,0,1.245-0.111,1.576-0.336
			c0.331-0.224,0.496-0.588,0.496-1.095c0-0.505-0.166-0.865-0.496-1.079c-0.331-0.214-0.856-0.321-1.576-0.321h-10.625
			c-1.265,0-2.355-0.136-3.269-0.409c-0.915-0.271-1.674-0.651-2.277-1.138c-0.604-0.486-1.051-1.075-1.343-1.767
			c-0.292-0.69-0.438-1.454-0.438-2.291c0-0.914,0.161-1.746,0.482-2.495c0.321-0.749,0.817-1.387,1.488-1.912
			c0.671-0.525,1.537-0.935,2.598-1.227c1.06-0.291,2.33-0.438,3.809-0.438h16.958l-3.882,5.079h-13.544
			c-0.7,0-1.221,0.098-1.562,0.292c-0.341,0.194-0.511,0.545-0.511,1.051s0.17,0.86,0.511,1.065c0.34,0.204,0.861,0.307,1.562,0.307
			H194.104z"/>
		<path fill="#FFFFFF" d="M214.128,196.281l3.648-5.021h4.903c0.584,0,1.192,0,1.824,0c0.633,0,1.183,0.02,1.649,0.059
			c-0.272-0.351-0.589-0.793-0.948-1.328c-0.36-0.535-0.706-1.036-1.036-1.503l-3.503-5.167l-9.166,12.96h-7.15l12.521-17.659
			c0.409-0.564,0.924-1.07,1.547-1.518s1.411-0.672,2.364-0.672c0.915,0,1.679,0.21,2.292,0.628
			c0.612,0.419,1.133,0.938,1.562,1.562l12.201,17.659H214.128z"/>
		<path fill="#FFFFFF" d="M263.369,191.261l-3.911,5.021h-17.251v-19.527h6.042v14.507H263.369z"/>
		<path fill="#FFFFFF" d="M275.892,196.281l3.648-5.021h4.903c0.584,0,1.192,0,1.824,0c0.633,0,1.183,0.02,1.649,0.059
			c-0.272-0.351-0.589-0.793-0.948-1.328c-0.36-0.535-0.706-1.036-1.036-1.503l-3.503-5.167l-9.165,12.96h-7.151l12.521-17.659
			c0.409-0.564,0.924-1.07,1.547-1.518s1.411-0.672,2.364-0.672c0.915,0,1.679,0.21,2.292,0.628
			c0.612,0.419,1.133,0.938,1.562,1.562l12.201,17.659H275.892z"/>
	</g>
</g>
</svg>
